<?xml version="1.0" standalone="no"?>
<!DOCTYPE svg PUBLIC "-//W3C//DTD SVG 20010904//EN"
 "http://www.w3.org/TR/2001/REC-SVG-20010904/DTD/svg10.dtd">
<svg version="1.0" xmlns="http://www.w3.org/2000/svg"
 width="260.000000pt" height="260.000000pt" viewBox="0 0 260.000000 260.000000"
 preserveAspectRatio="xMidYMid meet">
<metadata>
Created by potrace 1.11, written by Peter Selinger 2001-2013
</metadata>
<g transform="translate(0.000000,260.000000) scale(0.100000,-0.100000)"
fill="#000000" stroke="none">
<path d="M138 2469 c-10 -6 -15 -2325 -5 -2335 4 -4 1541 -7 2245 -4 l92 0 0
1170 c0 1107 -1 1170 -17 1170 -161 5 -2308 3 -2315 -1z m2234 -88 c14 -1 16
-6 8 -25 -5 -15 -5 -26 0 -28 5 -2 6 -19 1 -40 -5 -21 -6 -38 -2 -38 9 0 5
-96 -4 -110 -4 -6 -2 -10 3 -10 9 0 7 -94 -3 -110 -3 -4 -1 -10 4 -12 6 -2 7
-17 2 -40 -5 -21 -6 -38 -2 -38 9 0 5 -96 -4 -110 -4 -6 -2 -10 3 -10 9 0 7
-94 -3 -110 -3 -4 -1 -10 4 -12 6 -2 7 -17 2 -40 -5 -21 -6 -38 -2 -38 9 0 5
-96 -4 -110 -4 -6 -2 -10 3 -10 9 0 7 -94 -3 -110 -3 -4 -1 -10 4 -12 6 -2 7
-17 2 -40 -5 -21 -6 -38 -2 -38 9 0 5 -96 -4 -110 -4 -6 -2 -10 3 -10 9 0 7
-94 -3 -110 -3 -4 -1 -10 4 -12 6 -2 7 -17 2 -40 -5 -21 -6 -38 -2 -38 9 0 5
-96 -4 -110 -4 -6 -2 -10 3 -10 9 0 7 -94 -3 -110 -3 -4 -1 -10 4 -12 6 -2 7
-17 2 -40 -5 -21 -6 -38 -2 -38 9 0 5 -96 -4 -110 -4 -6 -2 -10 3 -10 9 0 7
-94 -3 -110 -3 -4 -1 -10 4 -12 6 -2 7 -17 2 -40 -5 -21 -6 -38 -2 -38 7 0 6
-98 -2 -106 -8 -9 -176 -10 -171 -2 3 4 0 8 -5 8 -6 0 -11 -3 -11 -7 0 -10
-413 -9 -428 1 -7 4 -12 4 -12 -1 0 -7 -248 -10 -275 -3 -5 1 -12 1 -15 0 -15
-6 -217 -4 -213 3 2 4 -1 7 -6 7 -6 0 -11 -3 -11 -7 0 -10 -413 -9 -428 1 -7
4 -12 4 -12 -1 0 -7 -248 -10 -275 -3 -5 1 -12 1 -15 0 -15 -6 -217 -4 -213 3
2 4 0 7 -6 7 -5 0 -11 -5 -13 -11 -2 -7 -12 -7 -28 -1 l-25 10 1 1078 c1 594
2 1079 3 1079 60 1 2142 -3 2153 -4z"/>
<path d="M556 2085 c6 -28 5 -29 -8 -11 -14 18 -15 18 -20 -7 -3 -14 -2 -25 1
-24 3 1 8 -2 10 -8 2 -5 11 -20 21 -33 11 -13 16 -31 12 -44 -3 -14 -1 -19 6
-14 7 4 12 1 12 -8 0 -9 5 -16 10 -16 6 0 10 -5 10 -11 0 -5 -6 -7 -12 -4 -7
4 -4 -1 6 -9 11 -9 17 -19 13 -22 -4 -4 2 -13 13 -21 11 -8 20 -23 20 -34 0
-11 5 -17 10 -14 7 4 9 -5 6 -27 -3 -18 -3 -27 0 -20 3 6 10 12 15 12 6 0 8
-4 4 -9 -3 -5 0 -13 6 -16 5 -4 8 -13 5 -21 -3 -8 1 -14 8 -14 8 0 17 -7 20
-16 5 -14 4 -15 -9 -4 -23 19 -18 7 10 -26 14 -16 23 -34 21 -41 -6 -15 29
-55 40 -45 4 4 2 -1 -5 -10 -12 -16 -11 -18 8 -18 13 0 19 -4 16 -10 -4 -6
-11 -8 -16 -5 -5 3 -6 -1 -3 -9 3 -9 11 -16 16 -16 6 0 8 -7 5 -14 -4 -11 -1
-13 10 -9 11 4 14 2 9 -5 -4 -7 -3 -12 2 -12 6 0 8 -10 4 -22 -3 -14 -2 -19 6
-14 7 4 12 1 12 -9 0 -10 5 -14 13 -9 9 5 9 4 -1 -7 -10 -11 -8 -16 10 -27 19
-11 20 -12 3 -8 -19 6 -19 6 -1 -8 10 -9 16 -22 13 -30 -4 -10 -1 -13 9 -9 12
4 15 -1 12 -23 -2 -19 -8 -28 -17 -26 -11 2 -12 0 -3 -11 10 -11 9 -17 -2 -26
-11 -9 -15 -9 -19 1 -3 7 -4 0 -4 -17 2 -21 -2 -29 -12 -27 -12 3 -12 0 -2
-12 9 -11 9 -16 0 -22 -8 -5 -9 -3 -4 7 7 12 6 12 -7 1 -10 -8 -14 -21 -10
-34 4 -15 -3 -28 -24 -46 -16 -13 -22 -21 -14 -17 8 3 6 -1 -4 -9 -14 -11 -16
-16 -6 -16 9 0 6 -6 -8 -16 -12 -8 -19 -20 -16 -26 4 -6 0 -14 -7 -19 -12 -8
-12 -11 1 -19 13 -9 13 -10 0 -10 -17 0 -42 -48 -33 -63 3 -6 1 -7 -4 -4 -6 4
-16 -6 -22 -24 -7 -21 -15 -28 -23 -23 -8 5 -7 1 2 -11 12 -15 12 -17 1 -10
-11 6 -13 4 -8 -9 5 -11 3 -15 -5 -10 -8 5 -9 2 -5 -10 4 -9 3 -14 -2 -11 -5
3 -12 1 -15 -4 -4 -5 2 -12 11 -14 17 -4 17 -5 1 -6 -10 0 -19 -5 -19 -11 -1
-5 -2 -15 -3 -20 0 -6 -7 -14 -14 -19 -8 -5 -14 -12 -15 -17 -1 -5 -5 -8 -8
-7 -4 1 -4 -7 -1 -19 4 -16 2 -19 -8 -13 -10 6 -12 4 -7 -8 4 -12 1 -17 -11
-18 -11 0 -13 -2 -4 -6 10 -4 9 -9 -5 -20 -10 -8 -12 -12 -6 -8 9 4 11 1 7 -9
-3 -9 -10 -13 -15 -10 -5 3 -8 0 -7 -8 2 -7 -2 -12 -9 -11 -7 2 -10 -4 -7 -12
4 -8 10 -15 16 -15 5 0 6 5 3 10 -3 5 -1 10 4 10 14 0 14 -13 1 -26 -7 -7 -6
-11 4 -11 8 0 18 7 21 16 6 14 8 13 21 -3 8 -11 14 -14 14 -8 0 7 5 12 11 12
5 0 8 -4 5 -8 -7 -12 26 -11 42 1 8 6 12 5 12 -4 0 -8 5 -6 13 6 11 14 16 15
22 5 5 -9 4 -11 -3 -6 -7 4 -12 2 -12 -3 0 -14 17 -14 25 -1 3 6 11 10 16 10
6 0 7 -6 3 -13 -5 -7 0 -6 11 3 11 9 16 10 11 2 -4 -6 -2 -12 3 -12 6 0 11 7
11 15 0 8 4 15 10 15 5 0 9 -3 9 -7 -3 -20 2 -26 11 -13 9 13 10 13 10 0 0
-13 1 -13 10 0 7 11 10 11 10 2 0 -7 5 -10 10 -7 6 4 7 11 4 17 -4 7 -2 8 5 4
6 -4 9 -12 6 -17 -4 -5 -1 -9 4 -9 6 0 11 5 11 10 0 6 5 10 11 10 5 0 8 -4 5
-8 -2 -4 11 -8 30 -8 22 0 33 4 30 12 -3 7 3 10 15 7 10 -3 16 -9 13 -14 -3
-5 -1 -9 5 -9 5 0 12 6 14 13 4 9 8 8 16 -3 10 -13 11 -13 11 0 0 13 1 13 10
0 8 -13 11 -13 22 -1 11 11 11 13 -1 6 -10 -6 -12 -4 -6 5 6 10 11 9 22 -5 7
-11 13 -13 13 -7 0 7 5 12 11 12 5 0 7 -4 4 -10 -3 -5 -2 -10 4 -10 5 0 12 6
15 13 5 9 7 9 12 0 3 -7 10 -13 15 -13 6 0 7 5 4 10 -9 14 8 12 24 -2 11 -11
12 -10 6 1 -6 11 -4 13 8 8 9 -3 19 -1 23 5 5 7 2 8 -7 4 -8 -4 -3 2 11 14 14
12 20 19 13 16 -6 -4 -15 -2 -18 4 -4 6 -3 10 2 9 21 -4 31 2 29 19 0 10 5 16
13 14 12 -3 12 -1 0 14 -8 10 -9 15 -3 11 16 -10 25 18 11 32 -9 9 -8 10 7 5
16 -6 18 -4 13 12 -7 18 -6 18 7 1 10 -14 15 -15 19 -5 3 7 6 3 6 -9 1 -13 7
-23 14 -23 8 0 7 -4 -3 -10 -11 -7 -11 -10 -2 -10 7 0 10 -5 7 -10 -4 -6 -1
-9 5 -8 7 2 14 -5 15 -14 2 -10 10 -25 19 -34 18 -18 21 -28 5 -18 -8 4 -7 0
1 -15 6 -12 18 -25 26 -28 13 -5 13 -7 2 -14 -10 -7 -10 -9 3 -9 8 0 21 6 28
13 11 10 12 9 6 -2 -6 -10 -4 -13 7 -8 9 3 20 1 26 -5 6 -6 16 -7 22 -3 20 12
80 13 80 1 0 -7 3 -7 8 -1 10 14 65 14 74 1 5 -7 8 -6 8 3 0 11 3 11 15 1 10
-9 15 -9 15 -1 0 6 10 9 23 7 12 -2 28 1 35 7 9 7 11 5 5 -9 -6 -16 -4 -17 8
-7 11 9 19 9 26 2 6 -6 17 -8 23 -4 20 12 80 13 80 1 0 -7 3 -7 8 -1 9 13 55
18 47 6 -3 -6 6 -7 22 -2 33 9 44 8 60 -2 7 -4 23 -2 35 5 13 7 28 11 33 10 6
-1 -1 7 -15 19 -14 11 -18 18 -10 14 13 -6 13 -5 0 7 -8 7 -15 19 -16 26 -2
28 -4 33 -12 28 -4 -2 -13 4 -20 14 -8 13 -8 21 -1 25 6 4 3 13 -8 23 -10 10
-18 27 -17 40 1 18 -1 20 -13 11 -11 -10 -12 -8 -7 5 4 11 -1 23 -12 32 -11 9
-14 13 -7 10 6 -4 15 -1 19 5 4 7 3 9 -3 6 -6 -4 -16 0 -23 8 -7 8 -10 15 -6
15 3 0 -2 9 -12 20 -17 20 -18 24 -21 56 0 8 -5 12 -11 9 -5 -3 -10 2 -10 12
0 10 -7 27 -15 37 -8 10 -12 23 -9 27 3 5 0 9 -5 9 -6 0 -10 3 -9 7 3 14 -14
43 -22 38 -5 -3 -6 5 -2 17 4 15 2 19 -7 13 -10 -6 -11 -3 -2 14 7 12 8 21 4
20 -22 -4 -31 3 -28 21 2 11 -1 23 -7 26 -7 5 -8 2 -3 -6 5 -8 4 -11 -2 -7 -6
4 -9 18 -7 32 1 15 -3 28 -11 31 -12 5 -30 50 -27 67 1 4 -4 7 -12 7 -8 0 -17
7 -20 16 -5 12 -3 14 7 8 7 -5 5 -2 -4 7 -14 13 -15 19 -4 40 7 13 11 27 9 31
-2 3 1 10 7 14 8 5 9 3 4 -6 -6 -9 -4 -11 4 -5 7 4 10 16 8 27 -3 11 -3 17 0
14 9 -9 33 66 26 78 -4 6 2 4 12 -4 11 -9 16 -10 11 -2 -4 6 -3 12 3 12 6 0 8
7 5 15 -4 8 -1 15 5 15 6 0 8 7 5 15 -4 10 -2 13 8 10 9 -4 15 0 15 9 0 8 -5
13 -11 10 -6 -3 -4 0 5 8 9 7 14 19 11 27 -3 8 0 11 7 7 10 -7 15 8 14 42 -1
6 6 12 14 12 10 0 13 6 9 16 -3 8 -2 12 4 9 6 -3 10 3 10 15 0 11 7 23 15 26
8 4 13 10 10 14 -9 14 6 40 24 40 9 0 12 3 6 8 -16 11 -12 32 9 47 11 9 17 22
13 34 -3 15 -1 18 11 14 10 -4 13 -2 8 5 -4 8 0 12 11 12 14 0 15 2 5 9 -11 7
-9 13 9 30 12 11 19 21 15 21 -5 0 -1 12 9 26 9 14 14 28 11 31 -3 3 1 12 9
19 7 8 11 24 8 36 -3 17 -2 19 5 9 6 -8 12 -9 16 -3 3 6 1 14 -5 17 -5 4 -8
14 -5 24 5 12 2 11 -9 -3 -8 -11 -15 -14 -15 -8 0 7 -7 12 -16 12 -8 0 -13 -4
-10 -8 7 -11 -61 -9 -71 2 -5 5 -2 6 6 1 10 -6 12 -4 7 4 -6 9 -11 9 -22 0 -8
-6 -14 -8 -14 -4 0 4 -8 1 -17 -6 -9 -8 -14 -9 -10 -3 10 17 -20 26 -35 11
-15 -14 -60 -19 -52 -6 8 13 -10 11 -25 -3 -9 -8 -11 -8 -8 -2 4 7 0 14 -8 17
-8 4 -12 1 -9 -7 3 -8 -6 -12 -28 -11 -20 0 -32 5 -31 13 2 7 -2 12 -7 12 -6
0 -10 -6 -10 -13 0 -8 -14 -12 -40 -12 -22 0 -40 4 -40 9 0 4 -8 2 -17 -5 -9
-8 -14 -9 -10 -3 11 18 -21 25 -37 9 -13 -13 -17 -13 -30 1 -13 12 -16 12 -16
2 0 -8 -10 -14 -25 -14 -14 0 -25 4 -25 9 0 5 -8 3 -17 -4 -11 -10 -14 -10 -9
-1 4 6 3 12 -2 12 -6 0 -12 -7 -16 -15 -3 -8 -11 -14 -18 -13 -7 2 -12 -1 -13
-7 0 -5 -4 -15 -8 -22 -4 -6 -2 -15 3 -18 8 -5 6 -13 -6 -26 -9 -10 -21 -16
-25 -13 -5 3 -6 -2 -3 -10 8 -21 -36 -82 -47 -65 -4 7 -5 17 -2 22 3 5 -5 6
-18 2 -13 -3 -19 -3 -13 2 6 4 11 16 11 26 0 13 -6 16 -21 11 -19 -6 -20 -5
-4 7 13 11 15 18 7 29 -9 12 -10 11 -4 -5 5 -15 3 -17 -6 -8 -6 6 -11 23 -11
37 0 15 -5 23 -11 19 -6 -4 -8 0 -4 11 5 11 3 15 -4 10 -7 -4 -19 3 -29 16
-15 20 -18 20 -32 7 -10 -10 -20 -12 -29 -6 -12 7 -12 9 0 9 8 0 11 3 7 7 -4
5 -13 1 -19 -7 -7 -8 -18 -16 -26 -18 -12 -3 -12 0 -1 12 16 21 6 21 -14 0 -9
-9 -16 -11 -16 -4 0 6 -5 8 -12 3 -20 -12 -37 -12 -45 -1 -4 7 -1 8 7 3 9 -6
11 -4 5 4 -5 9 -11 9 -17 3 -6 -6 -17 -8 -26 -5 -9 4 -13 2 -9 -4 4 -7 0 -10
-10 -8 -10 1 -17 10 -17 19 1 8 -2 13 -7 10 -5 -3 -9 -11 -9 -18 0 -14 -55
-15 -67 -1 -5 4 -3 5 4 1 6 -3 14 -2 17 3 4 5 -1 8 -10 7 -8 -1 -20 -9 -25
-17 -7 -11 -9 -11 -9 -1 0 8 -5 10 -12 5 -21 -13 -36 -12 -48 2 -11 14 -44 9
-35 -4 2 -4 -2 -8 -10 -8 -8 0 -12 4 -10 8 9 14 -25 18 -39 4 -13 -13 -17 -13
-30 1 -13 13 -16 13 -16 1 0 -21 -43 -15 -58 8 -11 18 -12 17 -6 -10z m134 -5
c0 -5 -5 -10 -11 -10 -5 0 -7 5 -4 10 3 6 8 10 11 10 2 0 4 -4 4 -10z m480 0
c0 -5 -5 -10 -11 -10 -5 0 -7 5 -4 10 3 6 8 10 11 10 2 0 4 -4 4 -10z m400 0
c0 -5 -5 -10 -11 -10 -5 0 -7 5 -4 10 3 6 8 10 11 10 2 0 4 -4 4 -10z m320 0
c0 -5 -5 -10 -11 -10 -5 0 -7 5 -4 10 3 6 8 10 11 10 2 0 4 -4 4 -10z m127
-156 c-3 -3 -12 -4 -19 -1 -8 3 -5 6 6 6 11 1 17 -2 13 -5z m-1240 -909 c0 -8
-4 -12 -9 -9 -5 3 -6 10 -3 15 9 13 12 11 12 -6z m147 -483 c3 -5 -1 -9 -9 -9
-8 0 -12 4 -9 9 3 4 7 8 9 8 2 0 6 -4 9 -8z"/>
<path d="M586 2088 c3 -5 10 -6 15 -3 13 9 11 12 -6 12 -8 0 -12 -4 -9 -9z"/>
<path d="M1466 2088 c3 -5 10 -6 15 -3 13 9 11 12 -6 12 -8 0 -12 -4 -9 -9z"/>
<path d="M1626 2088 c3 -5 10 -6 15 -3 13 9 11 12 -6 12 -8 0 -12 -4 -9 -9z"/>
<path d="M1726 2092 c-3 -5 1 -9 9 -9 8 0 12 4 9 9 -3 4 -7 8 -9 8 -2 0 -6 -4
-9 -8z"/>
<path d="M540 2000 c0 -5 5 -10 11 -10 5 0 7 5 4 10 -3 6 -8 10 -11 10 -2 0
-4 -4 -4 -10z"/>
<path d="M1346 1998 c3 -5 10 -6 15 -3 13 9 11 12 -6 12 -8 0 -12 -4 -9 -9z"/>
<path d="M1766 1413 c-6 -14 -5 -15 5 -6 7 7 10 15 7 18 -3 3 -9 -2 -12 -12z"/>
<path d="M806 1113 c-6 -14 -5 -15 5 -6 7 7 10 15 7 18 -3 3 -9 -2 -12 -12z"/>
<path d="M1920 826 c0 -2 8 -10 18 -17 15 -13 16 -12 3 4 -13 16 -21 21 -21
13z"/>
</g>
</svg>
